<svg version="1.1" id="Layer_1" xmlns="http://www.w3.org/2000/svg" xmlns:xlink="http://www.w3.org/1999/xlink" x="0px" y="0px"
	 width="100%" viewBox="0 0 256 256" enable-background="new 0 0 256 256" xml:space="preserve">
<path fill="#000000" opacity="1.000000" stroke="none" 
	d="
M76.005203,31.622446 
	C83.158562,31.509670 89.726242,31.728088 96.247765,33.597515 
	C102.736893,35.457653 106.182449,39.908714 108.292946,45.798965 
	C110.877724,53.012917 110.616478,60.532398 110.191582,68.003098 
	C109.730675,76.106918 108.833961,84.186607 108.411194,92.291626 
	C108.237724,95.617577 107.985878,98.892220 107.424179,102.175133 
	C106.974640,104.802551 107.637932,106.694786 111.009964,106.670471 
	C124.006866,106.576759 137.004807,106.613220 150.002319,106.631302 
	C153.541885,106.636223 154.457428,104.478973 154.646088,101.450531 
	C155.625305,85.730797 156.404327,69.991692 157.808609,54.309074 
	C158.298996,48.832829 158.603302,43.390339 158.658325,37.913841 
	C158.700531,33.713234 160.372620,31.351696 164.987244,31.607290 
	C173.269669,32.066036 181.582199,30.960091 189.863754,32.596142 
	C200.473419,34.692123 206.936661,41.584045 207.285721,52.564655 
	C207.877670,71.185745 206.199142,89.711403 204.515793,108.234627 
	C204.005966,113.844650 203.926926,119.488808 203.483856,125.121216 
	C202.131516,142.312805 201.397766,159.552048 200.284698,176.763794 
	C199.407791,190.323456 198.284714,203.867020 197.351547,217.423294 
	C196.866699,224.466812 196.020523,225.541794 189.014542,225.323318 
	C180.225845,225.049240 171.353561,226.512619 162.654617,224.355515 
	C153.792252,222.157852 147.796478,214.686066 147.680191,205.587952 
	C147.472076,189.304367 148.977707,173.112335 150.520096,156.925201 
	C150.693359,155.106857 150.546478,153.260300 150.648666,151.432434 
	C150.820023,148.367218 149.275345,147.347763 146.390625,147.362213 
	C133.893250,147.424805 121.394814,147.454742 108.898018,147.348877 
	C105.389450,147.319138 104.506584,148.838715 104.270004,152.161514 
	C102.916283,171.174896 101.238632,190.162872 100.180603,209.201538 
	C99.970703,212.978500 99.383743,216.772919 99.305145,220.594513 
	C99.258194,222.877167 98.748230,225.287552 95.929298,225.245468 
	C86.137695,225.099380 76.282097,226.445724 66.563194,224.498306 
	C52.982174,221.777008 49.740810,212.611618 49.854267,203.089294 
	C50.021717,189.035233 51.026745,174.953934 52.460262,160.925278 
	C53.521900,150.535950 53.862659,140.074997 54.674404,129.657623 
	C55.883831,114.136620 57.283638,98.630432 58.490440,83.109230 
	C59.312897,72.531235 60.256973,61.946404 60.529442,51.348759 
	C60.666676,46.010956 61.875248,40.802975 61.721828,35.468544 
	C61.640076,32.626083 63.659294,31.795448 66.014107,31.702402 
	C69.175346,31.577490 72.344017,31.640446 76.005203,31.622446 
z"/>
</svg>